<?xml version="1.0" encoding="UTF-8"?>
<svg id="Layer_1" data-name="Layer 1" xmlns="http://www.w3.org/2000/svg" viewBox="0 0 1065.76 826.47">
  <defs>
    <style>
      .cls-1 {
        fill: #fff;
      }

      .cls-2 {
        fill: #3e3530;
      }
    </style>
  </defs>
  <path class="cls-1" d="M1061.91,330.35c-11.68,7.41-19.79,13.46-28.67,18.05-33.47,17.22-67.14,34.04-100.82,50.84-36.3,18.12-36.74,18.07-35.32,58.04,1.41,39.66,4.14,79.29,5.41,118.97.31,9.27-2.47,18.12-12.31,24.02-41.83,25.15-83.39,50.74-124.67,76.77-27.99,17.64-55.64,35.88-82.96,54.54-44.43,30.37-88.34,61.51-132.92,91.69-4.91,3.32-12.77,3.36-19.19,3.13-5.42-.19-11.06-2.32-16.03-4.76-43.87-21.52-87.91-42.68-131.26-65.2-29.86-15.53-58.57-33.23-88.01-49.59-12.75-7.09-25.97-13.31-39.01-19.83-31.08-15.53-62.13-31.16-93.38-46.4-7.21-3.51-7.07-9.04-6.96-15.38.6-29.16,1.75-58.34,1.25-87.49-.39-21.79-2.97-43.54-4.66-65.31-.62-7.85-4.51-12.88-12.02-16.43-35.57-16.78-70.79-34.25-106.29-51.16-13.45-6.41-14.53-9.35-4.32-20.27,36.01-38.57,70.15-78.94,110.05-113.79,1.91-1.67,3.24-4.01,6.2-7.79-12.97-1.5-23.89-3-34.85-3.96-33.02-2.88-66.1-5.34-99.09-8.56-4.2-.4-8.07-4.36-12.08-6.68,2.56-3.34,4.41-7.89,7.78-9.85,54.81-31.85,110.09-62.93,164.71-95.11,35.78-21.08,70.69-43.66,106.02-65.5,7.59-4.7,15.12-9.62,23.12-13.59,3.18-1.58,7.61-1.63,11.27-1.11,32.85,4.63,65.58,10.16,98.49,14.15,20.04,2.44,40.52,1.48,60.48,4.24,29.42,4.07,55.16-5.61,80.79-17.47,40.23-18.62,80.59-36.94,120.65-55.9,9.25-4.38,16.03-5.22,26.34-.19,16.95,8.29,36.01,12.29,54.12,18.2,7.48,2.44,15.22,4.46,22.19,7.91,47.99,23.73,99.47,38.38,149.28,57.35,39.36,14.99,78.76,29.87,118.05,45,5.72,2.21,11.41,4.97,16.42,8.47,7.65,5.34,8.32,11.12.6,15.95-11.79,7.37-24.47,13.52-37.26,19.06-37.45,16.22-75.14,31.89-115.16,48.82,26.43,19.93,51.65,37.03,77.8,52.85,25.68,15.55,52.77,29.2,76.2,53.31l.04-.02ZM167.85,470.18c1,15.32,2.58,28.64,2.62,41.99.08,31.91-.31,63.82-1.02,95.72-.21,9.43,2.45,15.78,11.35,20.14,17.11,8.41,33.71,17.83,50.71,26.49,38.9,19.81,78.12,39.03,116.83,59.23,22.35,11.67,43.58,25.49,65.99,37.07,35.39,18.24,71.29,35.54,107.14,52.85,5.18,2.51,11.31,3.09,18.98,5.05,0-22.25.5-42.16-.1-62.03-1.33-45.27-3.89-90.52-4.64-135.79-.83-49.2-.19-98.46-.19-147.69v-16.38c-21.83,17.09-37.72,36.59-54.58,55.08-18.11,19.91-35.41,40.56-53.54,60.45-18.4,20.2-29.67,23.19-53.1,11.5-41.12-20.52-81.46-42.6-122.44-63.37-27.38-13.88-55.31-26.63-83.96-40.36l-.04.04ZM554.97,429.06c-5.45,25.86-7.9,49.49-5.86,73.55.62,7.24,1.6,14.48,1.66,21.73.29,36.34-.04,72.68.54,109.02.75,45.83,2.16,91.63,3.29,137.44.23,9.18.62,18.33,1.06,31.14,108.09-80.9,220.91-148.5,330.8-219.93-1.54-50.59-3.06-100.1-4.57-149.52-2.81,0-4.1-.4-4.93.06-30.46,16.76-61.02,33.37-91.26,50.53-25.86,14.65-51.25,30.1-77.05,44.88-9.13,5.22-14.99,3.74-22.73-2.28-36.7-28.55-73.54-56.92-110.53-85.1-5.26-4.01-11.6-6.61-20.42-11.52ZM44.83,392.57c31.6,15.8,61.21,30.56,90.78,45.42,68.18,34.29,136.35,68.63,204.55,102.88,18.4,9.23,36.93,18.22,55.97,27.59,46.22-49.55,91.11-97.7,136.85-146.73-122.57-51.28-243.84-102-365.85-153.03-44.02,36.48-81.23,81.34-122.3,123.87ZM883.36,221.65c-10.54-4.53-18.46-8.54-26.78-11.42-22.25-7.7-44.93-14.21-66.97-22.42-47.76-17.8-94.46-38.28-143.19-53.64-33.14-10.44-65.31-23.88-97.97-35.8-5.97-2.19-12.23-3.57-19.52-5.66-1.08,10.58-2.47,18.87-2.64,27.18-.64,31.31.54,62.72-1.58,93.92-3.93,57.82,2.31,115.28,3.74,172.9.16,5.99,2.2,11.92,3.2,17.03,8.52,5.66,15.05,3.76,22.66-.42,59.44-32.83,119.07-65.29,178.75-97.64,30.58-16.57,61.6-32.33,92.04-49.13,18.98-10.48,37.22-22.23,58.26-34.88ZM565.28,416.35c4.26,3.3,6.72,5.34,9.31,7.2,34.85,25.42,70.01,50.45,104.48,76.37,22.68,17.03,22.25,17.62,46.63,3.17.96-.56,1.87-1.27,2.83-1.82,37.59-22.37,75.06-44.94,112.8-67,30.02-17.57,60.11-35.06,90.73-51.55,28.13-15.17,57.07-28.87,85.56-43.45,5.8-2.96,11.12-6.87,18.36-11.4-7.55-5.78-12.95-10.58-18.98-14.42-22.72-14.46-45.68-28.51-68.43-42.89-14.7-9.29-29.36-18.64-43.71-28.39-8.65-5.88-15.8-4.45-24.64.56-44.83,25.46-89.99,50.38-135.25,75.12-44.31,24.23-88.93,47.92-133.28,72.05-15.14,8.24-29.98,17.09-46.36,26.47l-.04-.02ZM511.77,97.94c-107.26,53.47-214.11,106.72-321.32,160.17,18.65,13.09,307.14,135.12,323.31,136.29,0-9.52.35-18.95-.08-28.34-.98-21.25-2.37-42.48-3.53-63.74-.6-11.17-2.6-22.52-1.39-33.5,6.07-55.23,2.73-110.68,4.56-165.99.06-1.48-.92-2.98-1.56-4.89ZM1043.76,149.54c-3.33-2.05-5.86-4.15-8.77-5.3-11.5-4.51-23.1-8.72-34.68-13.04-51-19.06-102.09-37.86-152.96-57.29-27.26-10.41-53.91-22.39-81.19-32.71-21.5-8.14-43.41-15.28-65.41-22-11.96-3.65-23.85-2.94-35.76,2.96-30.65,15.19-61.77,29.45-92.65,44.17-9.84,4.7-19.57,9.66-31.67,15.65,13.18,4.38,23.87,7.56,34.28,11.44,63.68,23.63,127.29,47.4,190.89,71.2,12.6,4.7,24.93,10.23,37.61,14.71,24.84,8.75,50.34,15.84,74.6,25.96,13.22,5.51,24.76,5.66,37.18.46,14.47-6.07,28.84-12.4,43.31-18.49,26.9-11.29,53.85-22.44,80.75-33.75,1.35-.56,2.31-2.03,4.43-3.97h.04ZM34.62,234.68c.35,1.36.71,2.73,1.08,4.09,12.76.94,25.53,1.92,38.3,2.84,28.01,2,56.01,4.34,84.06,5.7,7,.35,14.7-1.17,21.14-3.99,31.31-13.71,62.67-27.44,93.35-42.5,67.49-33.18,134.59-67.14,201.82-100.89,3.08-1.54,5.7-3.99,8.55-6.03-11.79-3.32-22.91-3.82-34.01-4.22-5.59-.19-11.23.35-16.74-.35-34.51-4.36-69.17-8.08-103.44-13.96-14.03-2.4-25.24.52-36.7,7.24-67.7,39.72-135.5,79.27-203.16,119.05-18.25,10.71-36.16,21.98-54.24,33v.02Z"/>
  <path class="cls-2" d="M236.98,110.39c17.59,1.6,33.58,7.97,49.59,12.75"/>
  <path class="cls-1" d="M236.98,115.17c16.67,1.59,32.39,7.79,48.3,12.57,5.93,1.79,8.46-7.45,2.54-9.22-16.82-5.05-33.23-11.25-50.86-12.92-2.58-.25-4.8,2.38-4.8,4.78,0,2.79,2.22,4.53,4.8,4.78h.02Z"/>
  <path class="cls-2" d="M214.82,124.79c11.19,6.37,22.39,11.15,33.58,12.75"/>
  <path class="cls-1" d="M212.38,128.87c10.77,6.1,22.39,11.42,34.74,13.23,2.56.38,5.16-.63,5.9-3.34.62-2.25-.77-5.51-3.35-5.87-11.62-1.71-22.31-6.53-32.44-12.27-2.25-1.29-5.24-.54-6.57,1.71s-.54,5.26,1.71,6.55h.02Z"/>
  <path class="cls-2" d="M188.81,137.27c15.99,4.78,30.38,12.75,44.79,20.71"/>
  <path class="cls-1" d="M188.32,141.91c15.45,4.68,29.59,12.46,43.64,20.23,5.39,3,10.25-5.26,4.83-8.26-14.78-8.18-29.69-16.28-45.93-21.19-5.92-1.79-8.46,7.43-2.54,9.22Z"/>
  <path class="cls-2" d="M546.2,673.41c17.59-11.15,36.8-20.71,55.99-30.28"/>
  <path class="cls-1" d="M548.46,677.42c17.96-11.35,36.99-20.83,55.99-30.28,5.53-2.75.68-11-4.83-8.26-19,9.47-38.03,18.93-55.99,30.28-5.2,3.28-.39,11.58,4.84,8.26Z"/>
  <path class="cls-2" d="M547.16,702.26c14.39-3.19,27.18-12.75,41.6-15.94"/>
  <path class="cls-1" d="M548.4,706.81c14.6-3.34,26.99-12.59,41.6-15.94,2.52-.58,4.01-3.47,3.35-5.87-.71-2.59-3.37-3.92-5.89-3.34-14.6,3.34-26.99,12.59-41.6,15.94-2.52.58-4.01,3.47-3.35,5.87.71,2.59,3.37,3.92,5.9,3.34Z"/>
  <path class="cls-2" d="M549.09,725.93c17.59-6.37,36.8-11.15,52.79-17.53"/>
  <path class="cls-1" d="M550.35,730.59c17.44-6.29,35.53-10.71,52.79-17.53,2.41-.96,4.08-3.21,3.35-5.87-.64-2.29-3.49-4.3-5.9-3.34-17.24,6.83-35.33,11.25-52.79,17.53-2.43.88-4.09,3.24-3.35,5.87.66,2.34,3.45,4.22,5.9,3.34Z"/>
</svg>